<?xml version="1.0" encoding="utf-8"?>
<!-- Generator: Adobe Illustrator 22.0.0, SVG Export Plug-In . SVG Version: 6.00 Build 0)  -->
<svg version="1.1" id="Layer_1" xmlns="http://www.w3.org/2000/svg" xmlns:xlink="http://www.w3.org/1999/xlink" x="0px" y="0px"
	 viewBox="0 0 101.2 63.1" style="enable-background:new 0 0 101.2 63.1;" xml:space="preserve">
<style type="text/css">
	.st0{fill:#F06900;}
	.st1{opacity:0.15;}
	.st2{fill:#FFFFFF;}
</style>
<path class="st0" d="M68.7,0.8h-36C12.1,0.8,0.1,16.3,0.1,32s12,31.2,32.6,31.2h36c20.7,0,32.6-15.5,32.6-31.2S89.4,0.8,68.7,0.8z"
	/>
<g class="st1">
	
		<image style="overflow:visible;enable-background:new    ;" width="130" height="126" xlink:href="4F64EB7BF49A39AB.png"  transform="matrix(0.9645 0 0 0.9645 3.2165 -28.5187)">
	</image>
</g>
<path class="st2" d="M91.8,31.5c0,12.8-10.4,23.1-23.1,23.1c-12.8,0-23.1-10.4-23.1-23.1c0-12.8,10.3-23.1,23.1-23.1
	C81.4,8.4,91.8,18.9,91.8,31.5z"/>
</svg>
