<?xml version="1.0" encoding="utf-8"?>
<!-- Generator: Adobe Illustrator 22.0.0, SVG Export Plug-In . SVG Version: 6.00 Build 0)  -->
<svg version="1.1" id="Layer_1" xmlns="http://www.w3.org/2000/svg" xmlns:xlink="http://www.w3.org/1999/xlink" x="0px" y="0px"
	 viewBox="0 0 419.2 63.1" style="enable-background:new 0 0 419.2 63.1;" xml:space="preserve">
<style type="text/css">
	.st0{fill:#F05A00;}
	.st1{fill:#FFFFFF;}
</style>
<path class="st0" d="M61.9,48.7C54.8,57.6,45,63,34.4,63.1c-20.7,0-32.6-15.5-32.6-31.2s12-31.2,32.6-31.2
	c12.3,0,30.7,10.1,30.7,33.2v2.3H16c0.7,9,9.2,15.5,18.1,15.5c6.8,0,12.7-3.3,17.1-9.2L61.9,48.7z M50.2,25.8
	c-2.7-9-9.4-13.8-17.5-13.8C24.6,12,18,17,16,25.8H50.2z"/>
<path class="st0" d="M72.9,3.2h12.7v7.5h0.2c3.5-5.5,10-9,18.1-9c12.5,0,23,10.4,23,25v35.7h-12.7v-33c0-10.8-5.6-15.2-14-15.2
	c-8.2,0-14.5,5.2-14.5,14.9v33.1H72.9V3.2z"/>
<path class="st0" d="M141.2,43.9c4.5,4.9,12,8.7,18.6,8.7c7.3,0,11.7-4.2,11.7-7.5c0-3.9-3.1-6-7.7-6.8l-7.2-1.3
	c-16.6-3.1-21.3-8.4-21.3-16.9c0-10,8.4-19.3,23.2-19.3c8.2,0,15.4,2.4,23.5,8.2l-7.2,8.9c-6.2-5.3-11.7-6.6-15.9-6.6
	c-5.5,0-10.9,2.7-10.9,7.5c0,3.5,2.8,5.4,7.7,6.2l12.8,2.4c10.5,2,15.6,7,15.6,15.8c0,8.7-7.1,19.9-25,19.9
	c-10,0-18.6-3.5-26.6-10.4L141.2,43.9z"/>
<path class="st0" d="M237.8,54.3h-0.3c-4,5.4-11.4,8.8-19.4,8.8c-19.4,0-30.7-15.9-30.7-31.2c0-14.5,12.1-31.2,31.3-31.2
	c8.8,0,15.5,3.8,18.8,8.8h0.3V2.4h12.7v59.1h-12.7L237.8,54.3L237.8,54.3z M219.7,51.1c10,0,18.6-8.6,18.6-19.2s-8.6-19.2-18.6-19.2
	c-10.3,0-18.8,8.6-18.8,19.2C200.9,42.6,209.4,51.1,219.7,51.1z"/>
<path class="st0" d="M305.4,21.7c-3.4-5.3-8.2-8.9-15.4-8.9c-11.1,0-19.2,8.6-19.2,19.2s8.1,19.2,19.2,19.2c7,0,12-3.5,15.4-8.9
	l11.1,6.6c-5.3,8.3-15.3,14.3-26.5,14.3c-20.6,0-32.6-15.5-32.6-31.2s12-31.2,32.6-31.2c12.6,0,20.8,6,26.5,14.3L305.4,21.7z"/>
<path class="st0" d="M386.7,0.8h-36c-20.6,0-32.6,15.5-32.6,31.2s12,31.2,32.6,31.2h36c20.7,0,32.6-15.5,32.6-31.2
	S407.4,0.8,386.7,0.8z"/>
<path class="st1" d="M409.8,31.5c0,12.8-10.4,23.1-23.1,23.1c-12.8,0-23.1-10.4-23.1-23.1c0-12.8,10.3-23.1,23.1-23.1
	C399.4,8.4,409.8,18.9,409.8,31.5z"/>
</svg>
