<?xml version="1.0" encoding="utf-8"?>
<!-- Generator: Adobe Illustrator 22.0.0, SVG Export Plug-In . SVG Version: 6.00 Build 0)  -->
<svg version="1.1" id="Layer_1" xmlns="http://www.w3.org/2000/svg" xmlns:xlink="http://www.w3.org/1999/xlink" x="0px" y="0px"
	 viewBox="0 0 256 256" style="enable-background:new 0 0 256 256;" xml:space="preserve">
<style type="text/css">
	.st0{fill:#EC7700;}
	.st1{fill:#FFFFFF;}
	.st2{fill:#FDFDFD;}
</style>
<g>
	<circle class="st0" cx="128" cy="128" r="128"/>
	<g>
		<path class="st1" d="M105.4,143.9v16.9l-60.2-26.1v-14.5l60.2-26.1v17.1l-42,16.2L105.4,143.9z"/>
		<path class="st1" d="M141.7,93.5L124.9,163c-0.6,2.3-1.1,4.1-1.5,5.4c-0.4,1.3-1.1,2.4-1.9,3.1c-0.9,0.7-2.1,1.1-3.8,1.1
			c-4.1,0-6.1-1.8-6.1-5.3c0-0.9,0.4-3.2,1.2-6.9L129.6,91c0.9-3.7,1.7-6.2,2.5-7.6c0.8-1.4,2.4-2,4.7-2c2,0,3.5,0.5,4.6,1.4
			c1.1,1,1.6,2.3,1.6,4C143,88,142.6,90.2,141.7,93.5z"/>
		<path class="st1" d="M210.8,134.7l-60.2,26.2V144l42.1-16.5l-42.1-16.3V94.3l60.2,26V134.7z"/>
	</g>
</g>
</svg>
