<?xml version="1.0" encoding="utf-8"?>
<!-- Generator: Adobe Illustrator 22.0.0, SVG Export Plug-In . SVG Version: 6.00 Build 0)  -->
<svg version="1.1" id="Layer_1" xmlns="http://www.w3.org/2000/svg" xmlns:xlink="http://www.w3.org/1999/xlink" x="0px" y="0px"
	 viewBox="0 0 256 256" style="enable-background:new 0 0 256 256;" xml:space="preserve">
<style type="text/css">
	.st0{fill:#EC7700;}
	.st1{fill:#FFFFFF;}
	.st2{fill:#FDFDFD;}
</style>
<g>
	<circle class="st0" cx="128" cy="128" r="128"/>
	<g>
		<path class="st1" d="M135.6,39.2c0,3.1,0,6.2,0.1,9.3c0,1.1-0.3,2.4,0.2,3.2c0.5,0.7,1.8,0.9,2.7,1.3c6.8,3.2,11.5,8.4,13.2,16
			c1.5,6.8,0.5,13.2-3.5,19c-0.7,1-1,2.3-0.6,3.5c6.3,17.7,12.5,35.4,18.7,53.1c0.2,0.6,0.4,1,1.9,0.5c3.9-1.3,7.9-0.9,11.9,0.2
			c0.2,0,0.3,0,0.5,0c0-1.9,0-4.3,0-6.3c0.8-0.1,1.1-0.2,2.1,0.3c2.7,1.4,5.9,1.4,8.7,0.3c5.4-2.2,12.8,4,13.1,9.9
			c0,0.4,0.1,0.8,0.2,1.2c0,0.3,0,0.2,0,0.5c-0.1,0.7-0.2,1.3-0.3,2c-1,5.5-6.2,9.7-11.8,9.4c-3.5-0.2-7.1,0-10.6,0.2
			c-0.5,0-0.8,0-1.4,0c0-2,0-3.9,0-5.9c-3.5,0-7,0-10.5,0c0.2,0.6,0.4,1.2,0.6,1.8c1,3,2.3,5.9,3,8.9c1.6,7,0.4,13.4-4.5,18.8
			c-0.4,0.5-0.7,1-0.7,1.6c0,5.1-0.1,10.2-0.1,15.2c0,0.4,0,0.7,0,1.1c-0.1,0-0.2,0-0.2,0.1c-0.1-0.4-0.3-0.8-0.4-1.1
			c-5.5-15.2-11.1-30.4-16.6-45.6c-0.2-0.5-0.7-0.8-1.2-0.8c-5.5,0-11,0-16.5,0c-0.3,0-0.6,0-1,0c0,4,0,8,0,12.1c-4,0-4.5,0-8.2,0
			c0-0.3,0-0.6,0-1c0-11.1,0-22.3,0-33.4c0-0.5,0.4-0.9,1-0.9c3.2,0,6.3,0,9.5,0c0.5,0,0.9,0.4,0.9,0.9c0,3.3,0,6.5,0,9.8
			c0,0.3,0,0.7,0,1c0.2,0.1,0.3,0.1,0.4,0.1c3.8,0,7.7,0,11.5-0.1c1.1,0,1.2-0.2,0.8-1.3c-5.2-14.7-10.4-29.4-15.6-44.1
			c-0.5-1.5-0.6-1.6-2.1-1.6c-3.8,0-7.6-0.9-10.9-2.7c-7.6-4.2-11.9-11-12.3-20.4c-0.4-9,6.4-19.1,14.8-22.4c1.9-0.8,1.9-0.8,2-3.1
			c0.1-3.1,0.1-6.3,0.1-9.4c0-0.3,0-0.6,0-0.8C128,39.2,131.8,39.2,135.6,39.2z M128.7,66.1c-4.4,0-8.7,4.2-8.7,8.7
			c0,4.5,4.1,8.7,8.6,8.8c4.6,0.1,8.8-4.2,8.9-8.7C137.5,70.3,133.3,66.1,128.7,66.1z"/>
		<path class="st1" d="M51.2,150.3c0.1-0.7,0.2-1.3,0.3-2c0.9-4.4,3.7-7.1,7.6-8.9c0.6-0.3,1.6-0.5,2.3-0.5c4.5-0.1,9-0.2,13.6-0.3
			c0.1,0,0.2,0,0.3,0.1c0,1.9,0,5.9,0,5.9s1.5,0.1,1.8,0.1c4.3,0,8.5,0,12.8,0c0.6,0,0.9-0.2,1.1-0.8c5.8-15.7,11.6-31.4,17.4-47.1
			c0.1-0.3,0.2-0.5,0.4-0.9c4.5,4,9.7,6.2,15.5,7.6c-0.3,1-0.6,1.8-0.9,2.6c-4.5,12.4-9,24.9-13.6,37.3c-0.4,1.1-0.4,1.2,0.8,1.2
			c1.8,0.1,3.6,0,5.4-0.2h1.5v9h-1.4c0,0-5.7,2.9-8.6,2.9c-0.4,0-0.9,0-1.3,0.1c-0.8,0-1.3,0.4-1.6,1.2
			C99.3,172.2,94,186.6,88.7,201c-0.1,0.4-0.3,0.7-0.4,1.1c-0.1,0-0.1,0-0.2,0c0-0.3,0-0.7,0-1c0-4.9-0.1-9.8-0.2-14.7
			c0-0.4-0.1-0.9-0.4-1.2c-5.1-5.9-6.7-12.6-4.1-20.1c0.9-2.6,1.9-5.2,2.8-7.9c0.1-0.2,0.1-0.4,0.2-0.5h-11v5.6
			c0.6,0,0.4,0.1,0.2,0.1c-4-0.1-7.9-0.2-11.9-0.2c-5.1,0.1-10.4-5.2-10.5-10.2c0-0.3-1.9-1-1.9-1S51.2,150.6,51.2,150.3z"/>
	</g>
</g>
</svg>
