<?xml version="1.0" encoding="utf-8"?>
<!-- Generator: Adobe Illustrator 22.0.0, SVG Export Plug-In . SVG Version: 6.00 Build 0)  -->
<svg version="1.1" id="Layer_1" xmlns="http://www.w3.org/2000/svg" xmlns:xlink="http://www.w3.org/1999/xlink" x="0px" y="0px"
	 viewBox="0 0 256 256" style="enable-background:new 0 0 256 256;" xml:space="preserve">
<style type="text/css">
	.st0{fill:#EC7700;}
	.st1{fill:#FFFFFF;}
	.st2{fill:#FDFDFD;}
</style>
<g>
	<circle class="st0" cx="128" cy="128" r="128"/>
	<g>
		<path class="st1" d="M199.2,114.4c-0.4,0-1.8,0-1.8,3l-4.2-3l-1.4,3l-4.2-3c0,0-0.3,0-0.8,0c-0.7,0.1-1-0.3-1.1-0.9
			c-0.1-0.5-0.2-0.9-0.3-1.3c0-0.6-0.2-1.2-0.5-1.8c0-0.8-0.3-1.5-0.6-2.2c-0.1-0.5-0.2-1-0.5-1.5c-0.2-1-0.6-1.9-1-2.8
			c-0.2-0.5-0.3-1.1-0.7-1.5c-0.9-2.6-2.3-5-3.8-7.3c-0.6-0.9-0.6-1.4,0.2-2.2c2.9-2.8,5.8-5.8,8.7-8.6c0.5-0.5,0.5-1.3,0-1.8
			c-5-4.9-10-9.9-14.9-14.9c-0.7-0.7-1.1-0.6-1.7,0.1c-2.9,2.9-5.9,5.8-8.7,8.8c-0.7,0.8-1.2,0.8-2.2,0.1c-5.3-3.8-11.6-6-17.9-7.4
			c-0.9-0.2-1.2-0.5-1.2-1.5c0-4.5,0-9,0-13.5h-23.3c0,4.5,0,9,0,13.5c0,0.9-0.2,1.3-1.4,1.5c-6.2,0.8-12.1,2.9-17,6.8
			c-1.5,1.2-1.9,1.4-2.7,0.6c-3-3-6-6-8.9-9c-0.6-0.6-0.9-0.7-1.6,0c-5,5-10,10-15,15c-0.6,0.6-0.7,1,0,1.7c2.9,2.9,5.7,5.8,8.7,8.6
			c0.9,0.9,1,1.4,0,2.7c-3.7,4.9-6,10.7-7,16.8c-0.2,1.5-0.7,2.2-2,2c0,0.4-0.2,0.6-0.4,0.8c0.2-0.2,0.4-0.5,0.4-0.8
			c-0.5,0-0.9,0-1.4,0c-3.7,0-7.3,0-11-0.1c-0.5,0-0.9,0.4-0.9,0.9c0,3.7,0,7.3,0.1,11c0,3.5,0,6.9-0.1,10.4c0,1,0.3,1.2,1.2,1.1
			c4.2,0,8.3,0,12.5,0c1.1,0,1.3,0.3,1.4,2.3c0.5,6,2.9,11.6,6.8,16.3c1.2,1.4,1.3,1.8,0.5,2.7c-3,3-6,6-9,8.9
			c-0.4,0.4-0.4,1.1,0,1.5c5.1,5,10.1,10,15.1,15.1c0.7,0.7,1,0.6,1.6-0.1c2.8-2.9,5.7-5.8,8.5-8.7c0.9-1,1.6-0.9,3.1,0.4
			c4.6,3.9,10.2,6.1,16.2,6.7c2.1,0.2,2.3,0.7,2.2,1.8c0,4.1,0,8.2,0,12.2c0,0.9,0.3,1.2,1.2,1.2c7,0,14,0,21,0
			c1.1,0,1.3-0.4,1.3-1.3c-0.1-4.1,0-8.2,0-12.2c0-1.4,0.5-1.5,3.2-1.7c5.8-0.4,11.2-2.8,15.4-6.7c1.4-1.3,1.8-1.1,2.5-0.4
			c3,2.9,6,5.8,8.9,8.8c0.7,0.7,1.1,0.7,1.8,0c5-5,10-10,15-15c0.7-0.7,0.6-1,0-1.6c-3-2.9-5.9-5.9-8.9-8.8
			c-0.6-0.6-0.8-0.9-0.3-1.8c3.6-5.7,6.4-11.9,7.7-18.6c0.2-0.9,0.7-0.8,1.3-0.8c4.2,0,8.3,0,12.5,0c0.8,0,1.1-0.2,1-1
			c-0.1-4.2,0-8.3-0.1-12.5c0-2.9,0-5.7,0.1-8.6C200.7,114.5,200.3,114.2,199.2,114.4z M97.2,112.1L97.2,112.1c0-0.1,0-0.1,0-0.2
			C97.1,112,97.1,112,97.2,112.1z M93.4,125.3c-0.1,0.1-0.2,0.1-0.3,0.2C93.2,125.4,93.3,125.3,93.4,125.3z M157.6,146.4
			c-13.3,19.8-42.3,20.6-56.7,1.5c-3.9-5.2-6.1-11-6.9-17.4l0,0c-0.1-1.4-0.1-2.8-0.2-4.2c0-0.4,0-0.8,0.1-1.1c0,0,0,0,0,0
			c0.2-1.7,0.4-3.3,0.6-5c0-0.5,0.1-0.9,0.1-1.4c0,0,0,0,0,0c0.8-2.2,1.6-4.4,2.5-6.7c0.2-0.1,0.3-0.3,0.2-0.6
			c0.3-0.6,0.9-1.2,0.9-2c-0.3,0-0.5,0.1-0.7,0.3c0.2-0.2,0.4-0.3,0.7-0.3c1.3-1.3,2.1-2.8,3.2-4.2c7.2-8.9,16.5-13.3,27.9-13.2
			c16.7,0.1,30.6,12.1,33.8,29c0,0.1,0.1,0.3,0.1,0.4c0.4-0.1,0.7-0.2,0.9-0.4c-0.3,0.2-0.6,0.3-0.9,0.4
			C164.5,130.5,162.7,138.8,157.6,146.4z"/>
		<path class="st1" d="M150.9,124.7c-1.5-0.9-3.1-1.8-4.7-2.6c-0.1,0.1-0.1,0.3-0.2,0.4c0.1-0.1,0.1-0.3,0.2-0.4
			c-0.8-0.5-1.7-1-2.5-1.5v0c-0.3-0.1-0.5-0.3-0.8-0.4c-0.9-0.7-1.8-1.2-2.8-1.6c-0.2-0.1-0.3-0.2-0.5-0.3c-2.4-1.4-4.8-2.9-7.2-4.3
			c-4.6-2.7-9.1-5.3-13.7-7.9c-2-1.1-3.6-0.2-3.6,2.1c0,5.8,0,11.6,0,17.3c0,2,0,4.1,0,6.1c0,4.7,0,9.4,0,14c0,2.5,1.5,3.3,3.7,2.2
			c0.3-0.1,0.6-0.3,0.8-0.5c5.2-3,10.5-6.1,15.7-9.1c5.2-3,10.4-6,15.6-9C153.1,127.9,153.2,126.1,150.9,124.7z M143,125.4
			c0.3-0.1,0.5-0.3,0.8-0.5C143.5,125.1,143.3,125.2,143,125.4z M145.2,123.6c0.2-0.2,0.4-0.5,0.6-0.8
			C145.6,123.1,145.4,123.4,145.2,123.6z"/>
	</g>
</g>
</svg>
