<?xml version="1.0" encoding="utf-8"?>
<!-- Generator: Adobe Illustrator 22.0.0, SVG Export Plug-In . SVG Version: 6.00 Build 0)  -->
<svg version="1.1" id="Layer_1" xmlns="http://www.w3.org/2000/svg" xmlns:xlink="http://www.w3.org/1999/xlink" x="0px" y="0px"
	 viewBox="0 0 256 256" style="enable-background:new 0 0 256 256;" xml:space="preserve">
<style type="text/css">
	.st0{fill:#EC7700;}
	.st1{fill:#FFFFFF;}
	.st2{fill:#FDFDFD;}
</style>
<g>
	<circle class="st0" cx="128" cy="127.6" r="128"/>
	<g>
		<path class="st2" d="M102,65c7.4,0.1,16.3,1.7,24.7,5.2c1.4,0.6,2.5,0.5,3.9,0c25.7-9.4,49.9-6.7,71.6,10.4
			c11.2,8.8,17.6,20.7,17.9,35.2c0.2,12.4-4.6,23-13.2,31.8c-2.2,2.2-4.4,4.4-7,6c-1.3,0.9-1.5,1.7-1.2,3.2c2,8.4,3.8,16.8,5.7,25.2
			c0.1,0.3,0.2,0.6,0.2,0.9c0.3,1.9,0.3,3.6-1.6,4.7c-1.9,1-3.4,0.3-4.9-1c-6.1-5.5-12.5-10.7-18.4-16.5c-4-4-7.9-5.5-13.9-4.7
			c-12.1,1.6-24-0.7-35.3-5.7c-1.4-0.6-2.5-0.6-3.9,0c-13,5.7-26.6,7.4-40.6,5.2c-1.5-0.2-2.6,0.1-3.7,1.1c-7.4,6.7-15,13.3-22.4,20
			c-0.3,0.3-0.6,0.5-0.9,0.8c-1.4,1.3-2.9,1.8-4.7,0.7c-1.8-1-2-2.7-1.6-4.5c1.2-5.3,2.4-10.6,3.6-16c0.8-3.5,1.5-7,2.4-10.5
			c0.4-1.6,0-2.3-1.2-3.2c-7.3-5.4-13.2-11.9-16.6-20.4c-6.6-16.4-4-31.5,6.9-45.1c10.4-13,24.4-19.6,40.6-22.3
			C92.4,65.2,96.3,64.9,102,65z M194.5,173.8c0.2-0.1,0.3-0.2,0.5-0.3c-1.1-4.7-2.2-9.5-3.2-14.2c-2-9-2.2-7.1,4.3-11.9
			c21.3-15.7,22.4-43.3,2.4-60.4c-15.6-13.4-33.8-16.9-53.7-13.5c-2.4,0.4-4.9,0.8-7.3,2.1c13.8,9.8,22.6,22.3,22.3,39.5
			c-0.2,17.3-9.5,29.6-23,39.5c0.9,0.3,1.6,0.6,2.3,0.8c11.1,3.6,22.3,4.3,33.7,2.1c1.9-0.4,3.3,0,4.7,1.2c2,1.9,4.1,3.7,6.2,5.5
			C187.3,167.5,190.9,170.7,194.5,173.8z M120.2,75.5c-1.4-0.4-2.1-0.7-2.9-0.9c-8.1-2.2-16.3-2.9-24.7-2c-14,1.6-26.6,6.7-36.4,17
			c-10.5,11-14.5,24-9.3,38.9c3.1,9,9.4,15.7,17.3,20.9c2.9,1.9,3.2,2.7,2.4,6.1c-0.5,2.2-1,4.4-1.5,6.7c-0.8,3.8-1.7,7.6-2.7,12.1
			c1.3-1.1,2.2-1.8,2.9-2.4c4.8-4.3,9.6-8.5,14.4-12.8c1.3-1.1,2.6-1.9,4.4-1.5c8.3,1.8,16.6,1.9,25,0.4c3.8-0.7,7.5-1.4,11.4-3.2
			c-13.7-9.9-22.8-22.4-23-39.5C97.3,97.9,106.1,85.4,120.2,75.5z M152.7,114.5c-0.1-1.6-0.1-3.4-0.4-5.2
			c-2.3-13.5-10.5-22.8-22-29.4c-1.2-0.7-2.1-0.5-3.2,0.1c-2.8,1.6-5.6,3.4-8,5.6c-11.1,9.8-16.4,21.7-13.4,36.5
			c2.1,10.2,8,18.2,16.2,24.2c8,5.9,6,5.9,13.7,0C146,138.5,152.3,128.2,152.7,114.5z"/>
	</g>
</g>
</svg>
