<?xml version="1.0" encoding="utf-8"?>
<!-- Generator: Adobe Illustrator 22.0.0, SVG Export Plug-In . SVG Version: 6.00 Build 0)  -->
<svg version="1.1" id="Layer_1" xmlns="http://www.w3.org/2000/svg" xmlns:xlink="http://www.w3.org/1999/xlink" x="0px" y="0px"
	 viewBox="0 0 85 70.9" style="enable-background:new 0 0 85 70.9;" xml:space="preserve">
<style type="text/css">
	.st0{fill:#005CB9;}
	.st1{fill:#CF3339;}
</style>
<g>
	<rect x="24.4" y="62.4" class="st0" width="36.3" height="0.4"/>
	<g>
		<path class="st0" d="M24.4,48.7v-5.9h3.1c0.1,0,0.2,0,0.3,0c0.2,0,0.3,0.1,0.5,0.2v0c0.1,0,0.1,0.1,0.2,0.1c0,0,0,0,0,0
			c0.4,0.2,0.8,0.7,1.2,1.3l5,7.5v-3.3l0,0v-4.1c0-1,0.8-1.8,1.8-1.8h2.1v6.4l0,0v8.4h-3c-0.1,0-0.2,0-0.3,0c-0.2,0-0.3-0.1-0.5-0.2
			l0,0c-0.1,0-0.1-0.1-0.2-0.1c0,0,0,0,0,0c-0.4-0.2-0.8-0.7-1.2-1.3l-5.1-7.5l0,0c-0.1-0.1-0.1-0.1-0.1-0.1v0.8h0v8.4h-2.1
			c-1,0-1.8-0.8-1.8-1.8V48.7L24.4,48.7z"/>
		<path class="st0" d="M45.8,44.6c0-1-0.8-1.8-1.8-1.8h-2.1v13.1c0,1,0.8,1.8,1.8,1.8h2.1V44.6z"/>
		<path class="st0" d="M59.2,50c-0.7-0.5-1.7-0.9-3-1.2c-2.7-0.6-3.1-0.7-3.1-0.7c0,0-0.9-0.2-0.9-0.9c0-0.5,0.3-0.9,0.9-1
			c0.2,0,0.4-0.1,0.7-0.1h1.4h2.4h0.8c0.3,0,0.5-0.1,0.7-0.2c0.4-0.2,0.7-0.5,0.9-0.9c0.1-0.2,0.2-0.5,0.2-0.7v-1.2v-0.3h-4.9h-0.5
			c-2.2,0-3.9,0.5-5,1.4c-0.6,0.5-1,1.2-1.2,2c-0.1,0.4-0.2,0.8-0.2,1.2c0,1.3,0.5,2.3,1.4,3c0.7,0.5,1.7,0.9,3,1.2
			c2,0.4,3,0.7,3.1,0.7c0,0,0.9,0.2,0.9,0.9c0,0.5-0.3,0.9-0.9,1c-0.2,0-0.4,0.1-0.7,0.1h-1.4l0,0h-3.2c-0.3,0-0.5,0.1-0.7,0.2
			c-0.4,0.2-0.7,0.5-0.9,0.9c-0.1,0.2-0.2,0.5-0.2,0.7v1.2v0.3h4.9h0.5c2.2,0,3.9-0.5,5-1.4c0.6-0.5,1-1.2,1.2-2
			c0.1-0.4,0.2-0.8,0.2-1.2C60.6,51.7,60.1,50.7,59.2,50z"/>
	</g>
	<g>
		<path class="st0" d="M27.3,70.7c-0.2,0.1-0.7,0.2-1.1,0.2c-0.6,0-1-0.2-1.3-0.4c-0.3-0.3-0.5-0.7-0.5-1.2c0-1.1,0.8-1.7,1.9-1.7
			c0.4,0,0.8,0.1,0.9,0.2L27,68.2c-0.2-0.1-0.4-0.1-0.8-0.1c-0.6,0-1.1,0.3-1.1,1.1c0,0.7,0.4,1.1,1,1.1c0.2,0,0.3,0,0.4,0v-0.7H26
			v-0.6h1.2V70.7z"/>
		<path class="st0" d="M28.7,70l-0.2,0.8h-0.8l1-3.3h1l1,3.3h-0.8L29.7,70H28.7z M29.6,69.4l-0.2-0.7c-0.1-0.2-0.1-0.4-0.2-0.6h0
			c0,0.2-0.1,0.4-0.2,0.6l-0.2,0.7H29.6z"/>
		<path class="st0" d="M31.1,70.4l1.6-2.3v0h-1.4v-0.6h2.4v0.4l-1.5,2.2v0h1.6v0.6h-2.6V70.4z"/>
		<path class="st0" d="M34.3,67.6c0.2,0,0.6-0.1,1-0.1c0.5,0,0.8,0.1,1,0.3c0.2,0.2,0.4,0.4,0.4,0.8c0,0.3-0.1,0.6-0.3,0.8
			c-0.3,0.2-0.6,0.3-1.1,0.3c-0.1,0-0.2,0-0.3,0v1.2h-0.7V67.6z M35,69.1c0.1,0,0.1,0,0.2,0c0.4,0,0.6-0.2,0.6-0.5
			c0-0.3-0.2-0.5-0.6-0.5c-0.1,0-0.2,0-0.3,0V69.1z"/>
		<path class="st0" d="M37.2,67.6c0.2,0,0.6-0.1,1-0.1c0.5,0,0.8,0.1,1.1,0.3c0.2,0.2,0.3,0.4,0.3,0.7c0,0.4-0.3,0.7-0.6,0.8v0
			c0.2,0.1,0.4,0.3,0.4,0.6c0.1,0.4,0.2,0.8,0.3,0.9H39c0-0.1-0.1-0.4-0.2-0.8c-0.1-0.4-0.2-0.5-0.5-0.5H38v1.3h-0.7V67.6z M38,69
			h0.3c0.4,0,0.6-0.2,0.6-0.5c0-0.3-0.2-0.5-0.5-0.5c-0.2,0-0.3,0-0.3,0V69z"/>
		<path class="st0" d="M43.2,69.1c0,1.1-0.7,1.7-1.6,1.7c-1,0-1.6-0.7-1.6-1.7c0-1,0.6-1.7,1.6-1.7C42.7,67.5,43.2,68.2,43.2,69.1z
			 M40.9,69.2c0,0.7,0.3,1.1,0.8,1.1c0.5,0,0.8-0.5,0.8-1.1c0-0.6-0.3-1.1-0.8-1.1C41.2,68.1,40.9,68.5,40.9,69.2z"/>
		<path class="st0" d="M46.6,69.6c0-0.4,0-0.9,0-1.4h0c-0.1,0.4-0.2,0.9-0.4,1.3l-0.4,1.3h-0.6l-0.4-1.3c-0.1-0.4-0.2-0.9-0.3-1.3h0
			c0,0.4,0,1-0.1,1.4l-0.1,1.3h-0.7l0.2-3.3h1l0.3,1.1c0.1,0.4,0.2,0.8,0.3,1.2h0c0.1-0.4,0.2-0.8,0.3-1.2l0.3-1.1h1l0.2,3.3h-0.7
			L46.6,69.6z"/>
		<path class="st0" d="M49.4,70.8v-3.3h0.9l0.7,1.2c0.2,0.3,0.4,0.8,0.5,1.1h0c0-0.4-0.1-0.9-0.1-1.4v-1h0.7v3.3h-0.8l-0.7-1.3
			c-0.2-0.4-0.4-0.8-0.6-1.2h0c0,0.4,0,0.9,0,1.4v1H49.4z"/>
		<path class="st0" d="M54.9,69.4h-1.2v0.8H55v0.6h-2.1v-3.3h2v0.6h-1.3v0.7h1.2V69.4z"/>
		<path class="st0" d="M55.7,67.5h2v0.6h-1.3v0.8h1.2v0.6h-1.2v1.3h-0.7V67.5z"/>
		<path class="st0" d="M59,68.1h-0.9v-0.6h2.5v0.6h-0.9v2.7H59V68.1z"/>
	</g>
	<path class="st1" d="M54.4,12.8c0.2,0-7.6-1.9-10.1-3.3c-1.3,0.6-2.1,1.3-2.1,2.1c0,4,15.4,3.3,15,8.9c-0.3,4.5-8.5,7-15.4,8.3
		c0.3,0.8,0.1,1.6-0.7,2.5c-1.1,1.3-2.8,2.3-4.5,3.2c0,0,0,0,0,0c-3,1.7-3.1,1.9-2,1.9c11.2-1.8,16.3-2.5,24-6
		c4.9-2.3,8.4-5.2,8.7-8.9C67.6,16.6,60.9,14.6,54.4,12.8z M42.9,24.7c0-4-15.4-3.3-15-8.9c0.3-4.5,8.5-7,15.4-8.3
		c-0.3-0.8-0.1-1.6,0.7-2.5c1.1-1.3,2.8-2.3,4.5-3.2c0,0,0,0,0,0c3-1.7,3.1-1.9,2-1.9c-11.2,1.8-16.3,2.5-24,6
		c-4.9,2.3-8.4,5.2-8.7,8.9c-0.4,4.8,6.3,6.8,12.9,8.5c-0.2,0,7.6,1.9,10.1,3.3C42,26.2,42.9,25.5,42.9,24.7z"/>
</g>
</svg>
