<?xml version="1.0" encoding="utf-8"?>
<!-- Generator: Adobe Illustrator 22.0.0, SVG Export Plug-In . SVG Version: 6.00 Build 0)  -->
<svg version="1.1" id="Layer_1" xmlns="http://www.w3.org/2000/svg" xmlns:xlink="http://www.w3.org/1999/xlink" x="0px" y="0px"
	 viewBox="0 0 85 70.9" style="enable-background:new 0 0 85 70.9;" xml:space="preserve">
<style type="text/css">
	.st0{fill:#FFF100;}
	.st1{fill:#1A1E6B;}
</style>
<g>
	<g>
		<g>
			<path class="st0" d="M77.5,37c2.4,11.2-16.3,16.9-34.9,16.8c-18.6-0.1-37.4-5.6-35-17C15.1,13,29.3,0.3,43.5,0.4
				C57.5,0.4,71,13.5,77.5,37"/>
		</g>
		<g>
			<path class="st1" d="M42.9,54.2c-0.1,0-0.3,0-0.4,0c-12.4-0.1-27.7-2.6-33.4-9.7c-1.9-2.3-2.5-4.9-1.9-7.8C14.4,14,28.3,0,43.4,0
				c0,0,0.1,0,0.1,0c14.9,0.1,28.1,14.2,34.3,36.9l0,0c0.6,2.8,0,5.4-1.9,7.7C71.2,50.4,58.3,54.2,42.9,54.2z M43.4,0.8
				C28.6,0.8,15,14.6,7.9,36.9c-0.5,2.6,0.1,5,1.8,7.1c4.6,5.7,17.5,9.3,32.8,9.4c0.1,0,0.3,0,0.4,0c15.1,0,27.8-3.6,32.4-9.3
				c1.7-2.1,2.3-4.5,1.7-7c-6.2-22.3-19-36.3-33.6-36.3C43.5,0.8,43.5,0.8,43.4,0.8z"/>
		</g>
		<g>
			<path class="st1" d="M17.5,31.9c-0.6,1.1-0.9,2.3-0.9,3.6c0,4.4,3.6,8,8,8c4.4,0,8-3.6,8-8c0-1.3-0.3-2.5-0.9-3.6l-7.2-13.5
				L17.5,31.9z"/>
		</g>
		<g>
			<path class="st1" d="M24.7,43.6c-4.4,0-8.1-3.6-8.1-8.1c0-1.3,0.3-2.5,0.9-3.6h0l7.2-13.5l0,0l7.2,13.5c0.6,1.2,0.9,2.4,0.9,3.6
				C32.8,40,29.1,43.6,24.7,43.6z M17.5,31.9c-0.6,1.1-0.9,2.3-0.9,3.6c0,4.4,3.6,8,8,8c4.4,0,8-3.6,8-8c0-1.2-0.3-2.4-0.8-3.6
				l-7.2-13.4L17.5,31.9L17.5,31.9z"/>
		</g>
		<g>
			<path class="st1" d="M52.2,10.7c2.4,0,4.6,0.8,6.3,4.2l9.9,18.7c0.6,1,0.9,2.1,0.9,3.3c0,3.7-3,6.7-6.7,6.7
				c-2.5,0-4.8-1.4-5.9-3.5L46.5,21.1c-1.8-3.5-5.2-4.8-8-4.8H26l0.3-1c1-2.5,3.1-4.5,6.3-4.5H52.2z"/>
		</g>
		<g>
			<path class="st1" d="M62.6,43.7c-2.5,0-4.7-1.4-5.9-3.5L46.5,21.1c-0.9-1.6-2.1-2.9-3.6-3.7c-1.3-0.7-2.8-1.1-4.3-1.1H26l0,0
				l0.3-1c1.1-2.9,3.4-4.5,6.4-4.5h19.5c2.1,0,4.4,0.5,6.4,4.2l9.9,18.7c0.6,1,0.9,2.2,0.9,3.4C69.3,40.7,66.3,43.7,62.6,43.7z
				 M26,16.3h12.5c1.5,0,3,0.4,4.3,1.1c1.6,0.8,2.8,2.1,3.6,3.7l10.2,19.1c1.2,2.2,3.4,3.5,5.9,3.5c3.7,0,6.7-3,6.7-6.7
				c0-1.2-0.3-2.3-0.9-3.3l-9.9-18.7c-1.9-3.7-4.3-4.1-6.3-4.1H32.6c-2.9,0-5.2,1.6-6.3,4.5L26,16.3z"/>
		</g>
		<g>
			<path class="st1" d="M38.5,18.6H27.3l11.5,21.6c1.1,2.1,3.4,3.5,5.9,3.5c3.7,0,6.7-3,6.7-6.7c0-1.2-0.3-2.4-0.9-3.3l-5.8-11.1
				C43.4,20,41.2,18.6,38.5,18.6"/>
		</g>
		<g>
			<path class="st1" d="M44.7,43.7c-2.5,0-4.7-1.4-5.9-3.5L27.2,18.5h11.3c2.7,0,4.9,1.4,6.2,4l5.8,11.1c0.6,1,0.9,2.2,0.9,3.4
				C51.4,40.7,48.4,43.7,44.7,43.7z M27.3,18.6l11.5,21.6c1.2,2.2,3.4,3.5,5.9,3.5c3.7,0,6.7-3,6.7-6.7c0-1.2-0.3-2.3-0.9-3.3
				l-5.8-11.1c-1.4-2.6-3.5-4-6.2-4H27.3z"/>
		</g>
	</g>
	<g>
		<g>
			<path class="st1" d="M6.5,63.6c0-0.3,0.1-0.5,0.2-0.7c0-0.2,0.1-0.3,0.2-0.4c0.2-0.2,0.5-0.4,1-0.4c0.4,0,0.7,0.1,0.9,0.4
				c0.2,0.3,0.4,0.7,0.6,1.2l1.3,3.4h0l1.3-3.6c0.2-0.4,0.3-0.7,0.6-1c0.2-0.2,0.5-0.3,0.9-0.3c0.4,0,0.7,0.1,0.9,0.3
				c0.2,0.2,0.4,0.4,0.5,0.9l1,5.9c0,0,0,0.2,0,0.3c0,0.2,0,0.3,0,0.4c0,0.2-0.1,0.5-0.3,0.7c-0.2,0.2-0.5,0.2-0.7,0.2
				c-0.3,0-0.6-0.1-0.7-0.3c-0.2-0.2-0.3-0.5-0.3-0.7l-0.7-4.1L11.9,70c-0.1,0.2-0.2,0.5-0.4,0.6c-0.2,0.1-0.5,0.2-0.8,0.2
				c-0.4,0-0.7-0.1-0.8-0.2c-0.2-0.2-0.3-0.4-0.4-0.6l-1.3-4.3H8.1l-0.6,3.8c-0.1,0.9-0.5,1.3-1.1,1.3c-0.3,0-0.5-0.1-0.7-0.2
				c-0.2-0.1-0.3-0.3-0.3-0.7v-0.1c0-0.1,0-0.3,0-0.3c0-0.1,0.1-0.2,0.1-0.4L6.5,63.6z"/>
		</g>
		<g>
			<path class="st1" d="M10.7,70.9c-0.4,0-0.7-0.1-0.8-0.2c-0.2-0.2-0.3-0.4-0.4-0.6l-1.3-4.3h0l-0.6,3.8c-0.1,0.9-0.5,1.3-1.1,1.3
				c-0.3,0-0.5-0.1-0.7-0.2c-0.2-0.2-0.3-0.4-0.3-0.7v-0.1c0-0.1,0-0.3,0-0.3c0,0,0-0.1,0-0.1c0-0.1,0-0.1,0-0.2l0.9-5.5
				c0-0.2,0.1-0.4,0.1-0.5c0-0.1,0-0.1,0-0.1c0.1-0.2,0.2-0.3,0.2-0.4c0.3-0.3,0.6-0.4,0.9-0.4c0,0,0,0,0,0c0.4,0,0.7,0.1,1,0.4
				c0.2,0.3,0.4,0.7,0.6,1.2l1.2,3.3l1.3-3.5c0.1-0.4,0.3-0.7,0.6-1c0.2-0.2,0.5-0.4,0.9-0.4c0.4,0,0.7,0.1,0.9,0.3
				c0.2,0.2,0.4,0.4,0.5,0.9l1,5.9c0,0,0,0.1,0,0.1c0,0.1,0,0.2,0,0.2c0,0,0,0.1,0,0.1c0,0.1,0,0.2,0,0.3c0,0.2-0.1,0.5-0.3,0.7
				c-0.2,0.1-0.4,0.2-0.7,0.2c-0.3,0-0.6-0.1-0.7-0.3c-0.1-0.1-0.2-0.4-0.3-0.7l-0.7-4L11.9,70c-0.1,0.2-0.2,0.5-0.4,0.6
				C11.3,70.8,11,70.9,10.7,70.9C10.7,70.9,10.7,70.9,10.7,70.9z M8.1,65.7L8.1,65.7L8.1,65.7L9.5,70c0.1,0.2,0.2,0.4,0.4,0.6
				c0.1,0.1,0.4,0.2,0.8,0.2c0,0,0,0,0,0c0.3,0,0.6-0.1,0.8-0.2c0.2-0.1,0.3-0.4,0.4-0.6l1.4-4.3l0,0l0.7,4.1
				c0.1,0.3,0.2,0.6,0.3,0.7c0.2,0.2,0.4,0.3,0.7,0.3c0.3,0,0.5-0.1,0.7-0.2c0.2-0.2,0.3-0.4,0.3-0.7c0-0.1,0-0.2,0-0.3
				c0,0,0-0.1,0-0.1c0-0.1,0-0.2,0-0.2c0,0,0-0.1,0-0.1l-1-5.9c-0.1-0.5-0.2-0.6-0.5-0.9c-0.2-0.2-0.5-0.3-0.9-0.3
				c-0.3,0-0.7,0.1-0.9,0.3c-0.2,0.3-0.4,0.6-0.6,1l-1.3,3.6l0,0.1h-0.1l0-0.1l-1.2-3.3c-0.2-0.5-0.4-0.9-0.6-1.2
				c-0.2-0.3-0.5-0.4-0.9-0.4c0,0,0,0,0,0c-0.4,0-0.7,0.1-0.9,0.4c-0.1,0.1-0.2,0.2-0.2,0.4c0,0,0,0.1,0,0.1c0,0.1-0.1,0.3-0.1,0.5
				l-0.9,5.5c0,0.1,0,0.2,0,0.2c0,0,0,0.1,0,0.1c0,0.1,0,0.2,0,0.3v0.1c0,0.3,0.1,0.5,0.3,0.6c0.2,0.1,0.4,0.2,0.7,0.2
				c0.6,0,0.9-0.4,1.1-1.3L8.1,65.7z"/>
		</g>
		<g>
			<path class="st1" d="M67.3,62.1c0.8,0,1.5,0.2,2.2,0.5c0.6,0.3,1.1,0.9,1.5,1.5c0.3,0.6,0.5,1.4,0.5,2.3c0,0.9-0.2,1.6-0.5,2.3
				c-0.4,0.7-0.8,1.2-1.5,1.5c-0.6,0.3-1.4,0.5-2.2,0.5c-0.8,0-1.5-0.1-2.1-0.5c-0.6-0.4-1.1-0.9-1.5-1.5c-0.4-0.7-0.5-1.4-0.5-2.3
				c0-0.9,0.2-1.7,0.5-2.3c0.3-0.6,0.8-1.1,1.5-1.5C65.8,62.3,66.5,62.1,67.3,62.1 M67.3,63.9c-0.5,0-0.9,0.1-1.1,0.4
				c-0.3,0.2-0.5,0.5-0.7,0.9c-0.1,0.4-0.2,0.8-0.2,1.3c0,0.7,0.2,1.3,0.5,1.8c0.4,0.5,0.9,0.8,1.5,0.8c0.5,0,0.9-0.1,1.2-0.4
				c0.3-0.2,0.5-0.5,0.7-0.9c0.1-0.4,0.2-0.8,0.2-1.2c0-0.5,0-0.9-0.2-1.3c-0.1-0.4-0.4-0.7-0.7-0.9C68.2,64,67.8,63.9,67.3,63.9"/>
		</g>
		<g>
			<path class="st1" d="M67.3,70.8c-0.9,0-1.6-0.2-2.2-0.5c-0.6-0.4-1.1-0.9-1.5-1.5c-0.4-0.7-0.5-1.4-0.5-2.3
				c0-0.9,0.2-1.7,0.5-2.3c0.3-0.6,0.8-1.1,1.5-1.5c0.6-0.3,1.3-0.5,2.2-0.5c0.8,0,1.6,0.2,2.2,0.5c0.6,0.3,1.1,0.8,1.5,1.5
				c0.3,0.6,0.5,1.4,0.5,2.3c0,0.9-0.2,1.6-0.5,2.3c-0.4,0.7-0.8,1.2-1.5,1.5C68.9,70.7,68.2,70.8,67.3,70.8z M67.3,62.1
				c-0.8,0-1.6,0.2-2.1,0.5c-0.6,0.4-1.1,0.9-1.4,1.5c-0.4,0.7-0.5,1.4-0.5,2.3c0,0.9,0.2,1.6,0.5,2.3c0.3,0.6,0.8,1.1,1.4,1.5
				c0.6,0.3,1.3,0.5,2.1,0.5c0.8,0,1.5-0.2,2.2-0.5c0.6-0.4,1.1-0.9,1.4-1.5c0.3-0.6,0.5-1.4,0.5-2.3c0-0.9-0.2-1.7-0.5-2.3
				c-0.4-0.7-0.9-1.2-1.4-1.5C68.9,62.3,68.2,62.1,67.3,62.1z M67.3,69.1c-0.7,0-1.2-0.3-1.6-0.8c-0.3-0.5-0.5-1.1-0.5-1.8
				c0-0.5,0.1-0.9,0.2-1.3c0.1-0.4,0.4-0.7,0.7-0.9c0.3-0.2,0.7-0.4,1.2-0.4c0.5,0,0.9,0.1,1.2,0.4c0.3,0.3,0.6,0.6,0.7,0.9
				c0.1,0.4,0.2,0.8,0.2,1.3c0,0.4-0.1,0.8-0.2,1.2c-0.1,0.4-0.4,0.7-0.7,0.9C68.2,68.9,67.8,69.1,67.3,69.1z M67.3,63.9
				c-0.5,0-0.9,0.1-1.1,0.4c-0.3,0.2-0.5,0.6-0.7,0.9c-0.1,0.4-0.2,0.8-0.2,1.3c0,0.7,0.2,1.3,0.5,1.8c0.3,0.5,0.8,0.8,1.5,0.8
				c0.5,0,0.9-0.1,1.2-0.4c0.3-0.2,0.5-0.5,0.7-0.9c0.1-0.4,0.2-0.8,0.2-1.2c0-0.5-0.1-0.9-0.2-1.3c-0.1-0.3-0.4-0.6-0.7-0.9
				C68.2,64.1,67.8,63.9,67.3,63.9z"/>
		</g>
		<g>
			<path class="st1" d="M19.6,67.5h2.1l-1-3.2h-0.1L19.6,67.5z M17.1,69l2.1-5.5c0.3-0.9,0.9-1.4,1.5-1.4c0.7,0,1.2,0.4,1.6,1.3
				l2.1,5.7c0.1,0.4,0.1,0.6,0.1,0.8c0,0.2-0.1,0.5-0.2,0.7c-0.2,0.2-0.4,0.2-0.7,0.2c-0.5,0-0.9-0.4-1-0.9l-0.3-0.7h-3.2L18.9,70
				c-0.1,0.2-0.3,0.6-0.4,0.7c-0.1,0.1-0.4,0.2-0.7,0.2c-0.3,0-0.5-0.1-0.7-0.2c-0.1-0.1-0.2-0.4-0.2-0.6C16.9,69.8,17,69.4,17.1,69
				"/>
		</g>
		<g>
			<path class="st1" d="M23.6,70.8c-0.5,0-0.9-0.5-1-0.9l-0.3-0.7h-3.2L18.9,70c-0.1,0.2-0.3,0.6-0.4,0.7c-0.1,0.1-0.4,0.2-0.7,0.2
				c-0.3,0-0.5-0.1-0.7-0.2c-0.1-0.1-0.2-0.4-0.2-0.6c0-0.3,0.1-0.6,0.2-1v0l2.1-5.5c0.4-0.9,0.9-1.4,1.6-1.4c0.7,0,1.3,0.5,1.6,1.3
				l2.1,5.7c0.1,0.3,0.1,0.6,0.1,0.8c0,0.2-0.1,0.5-0.3,0.7C24.2,70.8,24,70.8,23.6,70.8z M19.1,69.2h3.2l0,0l0.3,0.7
				c0.2,0.4,0.5,0.9,1,0.9c0.3,0,0.5-0.1,0.7-0.2c0.2-0.1,0.2-0.4,0.2-0.6c0-0.2,0-0.5-0.1-0.8l-2.1-5.7c-0.3-0.9-0.8-1.3-1.5-1.3
				c-0.7,0-1.2,0.5-1.5,1.4L17.1,69c-0.1,0.3-0.2,0.7-0.2,0.9c0,0.3,0.1,0.5,0.2,0.6c0.1,0.1,0.3,0.2,0.7,0.2c0.3,0,0.6-0.1,0.7-0.2
				c0.1-0.1,0.3-0.4,0.4-0.6L19.1,69.2z M21.8,67.5h-2.2l0,0l1.1-3.2h0.1l0,0L21.8,67.5z M19.7,67.5h2.1l-1-3.2h0L19.7,67.5z"/>
		</g>
		<g>
			<path class="st1" d="M25.6,63.1c0-0.3,0.1-0.6,0.3-0.8c0.2-0.2,0.5-0.2,0.7-0.2c0.7,0,1,0.4,1,1v2.4l3-3c0.3-0.2,0.5-0.4,0.8-0.4
				c0.3,0,0.5,0.1,0.8,0.2c0.2,0.2,0.3,0.5,0.3,0.7c0,0.3-0.2,0.5-0.4,0.7l-2.8,2.6l2.8,2.8c0.2,0.2,0.3,0.4,0.3,0.6
				c0,0.3-0.1,0.6-0.3,0.8c-0.2,0.1-0.5,0.3-0.7,0.3c-0.4,0-0.7-0.2-1-0.5l-2.9-2.9v2.4c0,0.4-0.1,0.7-0.3,0.8
				c-0.2,0.2-0.5,0.2-0.9,0.2c-0.2,0-0.5-0.1-0.7-0.3c-0.1-0.2-0.2-0.4-0.2-0.7V63.1z"/>
		</g>
		<g>
			<path class="st1" d="M26.6,70.8c0,0-0.1,0-0.1,0c-0.3,0-0.5-0.1-0.7-0.3c-0.1-0.2-0.2-0.4-0.2-0.7v-6.7c0-0.4,0.1-0.6,0.3-0.8
				c0.2-0.2,0.4-0.2,0.7-0.2c0,0,0,0,0,0c0.7,0,1,0.4,1,1v2.3l3-2.9c0.3-0.3,0.6-0.4,0.8-0.4c0.3,0,0.6,0.1,0.8,0.3
				c0.2,0.2,0.3,0.5,0.3,0.7c0,0.3-0.3,0.6-0.4,0.7l-2.8,2.6l2.8,2.8c0.1,0.1,0.3,0.3,0.3,0.6c0,0.4-0.1,0.6-0.3,0.8
				c-0.2,0.1-0.5,0.3-0.7,0.3c-0.3,0-0.7-0.2-1-0.5l-2.8-2.8v2.4c0,0.4-0.1,0.7-0.3,0.8C27.1,70.8,26.9,70.8,26.6,70.8z M26.6,62.2
				c-0.3,0-0.5,0.1-0.7,0.2c-0.2,0.1-0.3,0.4-0.3,0.8v6.7c0,0.3,0.1,0.6,0.2,0.7c0.2,0.2,0.4,0.3,0.7,0.3c0.3,0,0.6-0.1,0.8-0.2
				c0.2-0.1,0.3-0.4,0.3-0.8v-2.4l0,0l2.9,2.9c0.3,0.3,0.7,0.5,1,0.5c0.3,0,0.6-0.1,0.7-0.3c0.2-0.2,0.3-0.4,0.2-0.8
				c0-0.2-0.2-0.5-0.3-0.6l-2.8-2.8l0,0l2.8-2.6c0.2-0.2,0.4-0.4,0.4-0.7c0-0.2-0.1-0.5-0.3-0.7c-0.2-0.2-0.4-0.2-0.7-0.2
				c-0.3,0-0.5,0.1-0.8,0.4l-3.1,3v-2.4C27.6,62.5,27.3,62.2,26.6,62.2C26.6,62.2,26.6,62.2,26.6,62.2z"/>
		</g>
		<g>
			<path class="st1" d="M33.5,63.2c0-0.3,0.1-0.6,0.3-0.8c0.2-0.2,0.4-0.2,0.7-0.2h4.9c0.5,0,0.6,0.1,0.8,0.2
				c0.1,0.1,0.3,0.5,0.3,0.8v6.6c0,0.3-0.1,0.6-0.3,0.8c-0.2,0.2-0.5,0.2-0.8,0.2c-0.3,0-0.6-0.1-0.7-0.3c-0.2-0.2-0.3-0.5-0.3-0.7
				v-5.9h-2.9v5.9c0,0.3-0.1,0.5-0.2,0.8c-0.2,0.2-0.5,0.3-0.7,0.3c-0.4,0-0.6-0.1-0.8-0.3c-0.2-0.2-0.3-0.5-0.3-0.8V63.2z"/>
		</g>
		<g>
			<path class="st1" d="M39.4,70.8c0,0-0.1,0-0.1,0c-0.3,0-0.6-0.1-0.7-0.3c-0.2-0.2-0.3-0.5-0.3-0.8v-5.9h-2.8v5.9
				c0,0.3-0.1,0.6-0.2,0.8c-0.1,0.2-0.4,0.3-0.8,0.3c-0.4,0-0.6-0.1-0.8-0.3c-0.2-0.2-0.3-0.5-0.3-0.8v-6.6c0-0.3,0.1-0.6,0.3-0.8
				c0.2-0.1,0.4-0.2,0.7-0.2c0,0,0,0,0,0h4.9c0,0,0,0,0,0c0.5,0,0.6,0.1,0.7,0.2c0.1,0.1,0.3,0.5,0.3,0.8v6.6c0,0.3,0,0.6-0.3,0.8
				C39.9,70.8,39.7,70.8,39.4,70.8z M35.5,63.8h2.9v6c0,0.3,0.1,0.5,0.3,0.7c0.1,0.1,0.4,0.2,0.7,0.3c0,0,0.1,0,0.1,0
				c0.3,0,0.5-0.1,0.7-0.2c0.2-0.2,0.3-0.4,0.3-0.8v-6.6c0-0.4-0.2-0.7-0.3-0.8c-0.1-0.1-0.3-0.2-0.7-0.2c0,0,0,0,0,0h-4.9
				c0,0,0,0,0,0c-0.3,0-0.5,0.1-0.7,0.2c-0.2,0.2-0.3,0.4-0.3,0.8v6.6c0,0.3,0.1,0.6,0.3,0.7c0.2,0.2,0.4,0.3,0.8,0.3
				c0.3,0,0.6-0.1,0.7-0.3c0.1-0.2,0.2-0.4,0.2-0.7V63.8z"/>
		</g>
		<g>
			<path class="st1" d="M41.5,65.6v-2.5c0-0.4,0.2-0.6,0.3-0.7c0.2-0.2,0.4-0.3,0.7-0.3H46c0.3,0,0.5,0.1,0.6,0.2
				c0.1,0.1,0.3,0.4,0.3,0.7c0,0.2-0.1,0.5-0.2,0.6c-0.1,0.1-0.4,0.2-0.7,0.2h-2.5v1.6h2.4c0.3,0,0.6,0.1,0.7,0.3
				c0.1,0.1,0.2,0.3,0.2,0.6c0,0.3-0.2,0.5-0.2,0.6c-0.1,0.1-0.4,0.3-0.7,0.3h-2.4V69H46c0.4,0,0.6,0.1,0.8,0.3
				c0.1,0.1,0.2,0.4,0.2,0.6c0,0.3-0.1,0.5-0.2,0.6c-0.2,0.2-0.5,0.2-0.8,0.2h-3.5c-0.4,0-0.6-0.1-0.8-0.3c-0.1-0.2-0.3-0.5-0.3-0.7
				V65.6z"/>
		</g>
		<g>
			<path class="st1" d="M46,70.8h-3.5c-0.3,0-0.6-0.1-0.8-0.3c-0.1-0.2-0.3-0.5-0.3-0.7v-6.7c0-0.3,0.1-0.6,0.3-0.7
				c0.2-0.2,0.4-0.3,0.7-0.3H46c0.3,0,0.5,0.1,0.7,0.2c0.1,0.1,0.3,0.4,0.3,0.7c0,0.3-0.1,0.6-0.2,0.6c-0.1,0.1-0.4,0.2-0.7,0.2
				h-2.5v1.6h2.4c0.2,0,0.6,0.1,0.7,0.3c0,0,0,0,0,0c0.1,0.1,0.2,0.3,0.2,0.6c0,0.3-0.2,0.6-0.2,0.6c-0.1,0.1-0.3,0.3-0.7,0.3h-2.4
				V69H46c0.3,0,0.6,0.1,0.8,0.3c0.1,0.1,0.2,0.4,0.2,0.7c0,0.3-0.1,0.5-0.2,0.7C46.6,70.8,46.3,70.8,46,70.8z M42.4,62.2
				c-0.2,0-0.5,0.1-0.7,0.3c-0.1,0.1-0.3,0.4-0.3,0.7v6.7c0,0.2,0.1,0.5,0.3,0.7c0.1,0.2,0.4,0.3,0.8,0.3H46c0.3,0,0.6-0.1,0.7-0.2
				c0.1-0.1,0.2-0.3,0.2-0.6c0-0.2-0.1-0.5-0.2-0.6C46.6,69.1,46.3,69,46,69h-2.5v-1.7h2.4c0.4,0,0.6-0.2,0.7-0.3
				c0.1-0.1,0.2-0.3,0.2-0.6c0-0.3-0.1-0.5-0.2-0.6c0,0,0,0,0,0c-0.1-0.2-0.5-0.3-0.7-0.3h-2.4v-1.6H46c0.3,0,0.6-0.1,0.7-0.2
				c0.1-0.1,0.2-0.4,0.2-0.6c0-0.3-0.1-0.5-0.3-0.7c-0.1-0.1-0.3-0.2-0.6-0.2H42.4z"/>
		</g>
		<g>
			<path class="st1" d="M50.2,69.8v-5.9H49c-0.4,0-0.6-0.1-0.8-0.2c-0.2-0.1-0.3-0.4-0.3-0.6c0-0.6,0.3-0.9,1-0.9h4.8
				c0.7,0,1,0.3,1,0.9c0,0.2-0.1,0.5-0.2,0.6c-0.2,0.1-0.4,0.2-0.8,0.2h-1.4v5.9c0,0.4-0.1,0.7-0.3,0.8c-0.1,0.1-0.4,0.2-0.7,0.2
				c-0.3,0-0.7-0.1-0.8-0.2C50.4,70.4,50.2,70.2,50.2,69.8"/>
		</g>
		<g>
			<path class="st1" d="M51.3,70.9c-0.3,0-0.6-0.1-0.8-0.2c-0.1-0.1-0.3-0.4-0.3-0.8v-5.9H49c-0.4,0-0.7-0.1-0.8-0.2
				c-0.2-0.2-0.3-0.4-0.3-0.6c0-0.7,0.3-1,1.1-1h4.8c0.7,0,1.1,0.3,1.1,1c0,0.2-0.1,0.5-0.2,0.6c-0.2,0.1-0.5,0.2-0.8,0.2h-1.4v5.9
				c0,0.3-0.1,0.7-0.3,0.8C52,70.7,51.7,70.8,51.3,70.9C51.3,70.9,51.3,70.9,51.3,70.9z M49,62.1c-0.7,0-1,0.3-1,0.9
				c0,0.2,0.1,0.4,0.3,0.6c0.1,0.1,0.3,0.2,0.7,0.2h1.3v5.9c0,0.4,0.2,0.7,0.3,0.8c0.1,0.1,0.4,0.2,0.7,0.2c0,0,0,0,0.1,0
				c0.3,0,0.6-0.1,0.7-0.2c0.2-0.2,0.3-0.5,0.3-0.8v-5.9h1.4c0.3,0,0.6-0.1,0.8-0.2c0.1-0.1,0.2-0.4,0.2-0.6c0-0.6-0.3-0.9-1-0.9H49
				z"/>
		</g>
		<g>
			<path class="st1" d="M57.8,63.8v2.4H59c0.3,0,0.6-0.1,0.8-0.3c0.2-0.2,0.4-0.5,0.4-0.8c0-0.3-0.1-0.7-0.3-0.9
				c-0.2-0.2-0.6-0.3-1-0.3H57.8z M55.9,63.1c0-0.2,0.1-0.5,0.2-0.6c0.2-0.2,0.4-0.3,0.7-0.3h2.3c0.7,0,1.3,0.1,1.8,0.4
				c0.5,0.3,0.7,0.6,1,1c0.2,0.4,0.4,1,0.4,1.5c0,0.6-0.1,1.1-0.4,1.5c-0.2,0.4-0.5,0.8-0.9,1c-0.4,0.3-0.9,0.4-1.5,0.4h-1.6v1.9
				c0,0.3-0.1,0.6-0.3,0.8c-0.2,0.1-0.4,0.2-0.7,0.2c-0.7-0.1-1-0.4-1-1V63.1z"/>
		</g>
		<g>
			<path class="st1" d="M56.8,70.9c-0.7-0.1-1-0.4-1-1v-6.7c0-0.1,0-0.4,0.2-0.6c0.1-0.1,0.4-0.3,0.7-0.3h2.3c0.8,0,1.4,0.1,1.8,0.4
				c0.5,0.3,0.7,0.6,1,1c0.2,0.4,0.4,1,0.4,1.5c0,0.5-0.1,1.1-0.4,1.5c-0.2,0.5-0.5,0.8-0.9,1c-0.4,0.2-0.9,0.4-1.5,0.4h-1.6v1.9
				c0,0.3-0.1,0.6-0.3,0.8C57.4,70.8,57.1,70.9,56.8,70.9z M56.8,62.2c-0.4,0-0.6,0.2-0.7,0.3c-0.2,0.2-0.2,0.5-0.2,0.6v6.7
				c0,0.6,0.3,0.9,0.9,1c0.3,0,0.6-0.1,0.7-0.2c0.2-0.2,0.3-0.5,0.3-0.8v-1.9h1.6c0.6,0,1.1-0.1,1.5-0.4c0.4-0.2,0.7-0.5,0.9-1
				c0.2-0.4,0.4-0.9,0.4-1.5c0-0.5-0.1-1.1-0.4-1.5c-0.2-0.4-0.5-0.7-1-1c-0.4-0.3-1-0.4-1.8-0.4H56.8z M59,66.2h-1.1v-2.4h1.1
				c0.4,0,0.7,0.1,1,0.3c0.2,0.2,0.3,0.6,0.3,0.9c0,0.3-0.1,0.6-0.4,0.9C59.6,66.1,59.3,66.2,59,66.2z M57.9,66.2H59
				c0.3,0,0.6-0.1,0.8-0.3c0.2-0.3,0.4-0.5,0.4-0.8c0-0.3-0.1-0.6-0.3-0.9c-0.2-0.2-0.5-0.3-0.9-0.3h-1V66.2z"/>
		</g>
		<g>
			<path class="st1" d="M74.1,69.3l1.6-4.3l0,0l1.6,4.3l0.3,0.8c0.2,0.6,0.5,0.9,1,0.9c0.3,0,0.6-0.1,0.7-0.2
				c0.1-0.1,0.3-0.4,0.3-0.6c0-0.2,0-0.4-0.2-0.8l-2.2-5.7c-0.4-0.9-0.8-1.3-1.5-1.3c-0.7,0-1.1,0.5-1.5,1.4L72.1,69
				c-0.1,0.4-0.3,0.7-0.2,0.9c0,0.5,0.4,0.9,0.9,0.9c0.3,0,0.5-0.1,0.7-0.2c0.1-0.1,0.3-0.4,0.4-0.7L74.1,69.3z"/>
		</g>
		<g>
			<path class="st1" d="M78.5,70.9c-0.5,0-0.8-0.3-1-0.9l-0.3-0.8L75.7,65l-1.6,4.3L73.9,70c-0.1,0.3-0.2,0.5-0.4,0.7
				c-0.2,0.1-0.4,0.2-0.7,0.2c-0.5,0-0.9-0.3-0.9-0.9c0-0.2,0.1-0.6,0.2-0.9l2.1-5.5c0.4-1,0.8-1.4,1.5-1.4c0.7,0,1.1,0.4,1.5,1.4
				l2.2,5.7c0.2,0.4,0.2,0.6,0.2,0.8c0,0.2-0.2,0.5-0.3,0.7C79.1,70.8,78.8,70.9,78.5,70.9z M75.7,64.9l1.6,4.2l0.3,0.8
				c0.2,0.6,0.5,0.9,1,0.9c0.3,0,0.5-0.1,0.7-0.2c0.1-0.1,0.3-0.4,0.3-0.6c0-0.2,0-0.4-0.2-0.8l-2.2-5.7c-0.4-0.9-0.8-1.3-1.5-1.3
				c-0.7,0-1.1,0.4-1.5,1.4L72.1,69c-0.1,0.4-0.2,0.7-0.2,0.9c0,0.5,0.4,0.9,0.9,0.9c0.3,0,0.5-0.1,0.7-0.2c0.2-0.2,0.3-0.4,0.4-0.7
				l0.3-0.7L75.7,64.9L75.7,64.9L75.7,64.9L75.7,64.9L75.7,64.9z"/>
		</g>
	</g>
</g>
</svg>
