<?xml version="1.0" encoding="utf-8"?>
<!-- Generator: Adobe Illustrator 22.0.0, SVG Export Plug-In . SVG Version: 6.00 Build 0)  -->
<svg version="1.1" id="Layer_1" xmlns="http://www.w3.org/2000/svg" xmlns:xlink="http://www.w3.org/1999/xlink" x="0px" y="0px"
	 viewBox="0 0 253.4 154.4" style="enable-background:new 0 0 253.4 154.4;" xml:space="preserve">
<style type="text/css">
	.st0{fill:#CDCFCF;}
</style>
<g>
	<g>
		<path class="st0" d="M126.7,38.5c13.2,0,24,10.8,24,24v32c0,13.2-10.8,24-24,24s-24-10.8-24-24v-32
			C102.7,49.2,113.4,38.5,126.7,38.5 M126.7,32.5c-16.5,0-30,13.5-30,30v32c0,16.5,13.5,30,30,30s30-13.5,30-30v-32
			C156.7,46,143.2,32.5,126.7,32.5L126.7,32.5z"/>
	</g>
	<g>
		<path class="st0" d="M126.7,64.1c-1.7,0-3-1.3-3-3V49.4c0-1.7,1.3-3,3-3c1.7,0,3,1.3,3,3v11.7C129.7,62.8,128.3,64.1,126.7,64.1z"
			/>
	</g>
	<g>
		<path class="st0" d="M137,16.1c-0.8,0-1.5-0.3-2.1-0.9L126.7,7l-8.2,8.2c-1.2,1.2-3.1,1.2-4.2,0c-1.2-1.2-1.2-3.1,0-4.2l10.3-10.3
			c1.1-1.1,3.1-1.1,4.2,0L139.1,11c1.2,1.2,1.2,3.1,0,4.2C138.5,15.8,137.8,16.1,137,16.1z"/>
	</g>
	<g>
		<path class="st0" d="M126.7,154.6c-0.8,0-1.6-0.3-2.1-0.9l-10.3-10.3c-1.2-1.2-1.2-3.1,0-4.2c1.2-1.2,3.1-1.2,4.2,0l8.2,8.2
			l8.2-8.2c1.2-1.2,3.1-1.2,4.2,0c1.2,1.2,1.2,3.1,0,4.2l-10.3,10.4C128.2,154.3,127.4,154.6,126.7,154.6z"/>
	</g>
</g>
<g>
	<g>
		<path class="st0" d="M51.3,52.4c4.5,0,8.2,3.7,8.2,8.2v37.3c0,4.5-3.7,8.2-8.2,8.2H14.1c-4.5,0-8.2-3.7-8.2-8.2V60.6
			c0-4.5,3.7-8.2,8.2-8.2H51.3 M51.3,46.4H14.1c-7.8,0-14.2,6.4-14.2,14.2v37.3c0,7.8,6.4,14.2,14.2,14.2h37.3
			c7.8,0,14.2-6.4,14.2-14.2V60.6C65.5,52.8,59.1,46.4,51.3,46.4L51.3,46.4z"/>
	</g>
	<g>
		<g>
			<path class="st0" d="M21,81.1c-1.7,0-3-1.3-3-3V58.5c0-1.7,1.3-3,3-3s3,1.3,3,3v19.6C24,79.8,22.7,81.1,21,81.1z"/>
		</g>
		<g>
			<path class="st0" d="M29.9,70.5c-0.8,0-1.5-0.3-2.1-0.9L21,62.8l-6.8,6.8c-1.2,1.2-3.1,1.2-4.2,0c-1.2-1.2-1.2-3.1,0-4.2l8.9-8.9
				c1.2-1.2,3.1-1.2,4.2,0l8.9,8.9c1.2,1.2,1.2,3.1,0,4.2C31.5,70.2,30.7,70.5,29.9,70.5z"/>
		</g>
	</g>
</g>
<g>
	<g>
		<path class="st0" d="M202,105.3c-4.5,0-8.2-3.7-8.2-8.2V59.9c0-4.5,3.7-8.2,8.2-8.2h37.3c4.5,0,8.2,3.7,8.2,8.2v37.3
			c0,4.5-3.7,8.2-8.2,8.2H202 M202,111.3h37.3c7.8,0,14.2-6.4,14.2-14.2V59.9c0-7.8-6.4-14.2-14.2-14.2H202
			c-7.8,0-14.2,6.4-14.2,14.2v37.3C187.9,104.9,194.2,111.3,202,111.3L202,111.3z"/>
	</g>
	<g>
		<g>
			<path class="st0" d="M232.4,76.6c1.7,0,3,1.3,3,3v19.6c0,1.7-1.3,3-3,3s-3-1.3-3-3V79.6C229.4,77.9,230.7,76.6,232.4,76.6z"/>
		</g>
		<g>
			<path class="st0" d="M223.4,87.2c0.8,0,1.5,0.3,2.1,0.9l6.8,6.8l6.8-6.8c1.2-1.2,3.1-1.2,4.2,0c1.2,1.2,1.2,3.1,0,4.2l-8.9,8.9
				c-1.2,1.2-3.1,1.2-4.2,0l-8.9-8.9c-1.2-1.2-1.2-3.1,0-4.2C221.9,87.5,222.7,87.2,223.4,87.2z"/>
		</g>
	</g>
</g>
</svg>
